<svg width="100" height="100" viewBox="0 0 100 100" fill="none" xmlns="http://www.w3.org/2000/svg">
<path d="M9.72727 35.5682L11.0909 27.4545H49.3182L47.9545 35.5682H33.7045L27.3409 74H17.6136L23.9773 35.5682H9.72727ZM78.9236 27.4545H88.7645L83.7645 57.6818C83.2039 61.0758 81.9085 64.0455 79.8782 66.5909C77.8479 69.1364 75.2645 71.1212 72.1282 72.5455C68.9918 73.9545 65.4918 74.6591 61.6282 74.6591C57.7645 74.6591 54.507 73.9545 51.8555 72.5455C49.2039 71.1212 47.2873 69.1364 46.1055 66.5909C44.9236 64.0455 44.613 61.0758 45.1736 57.6818L50.1736 27.4545H60.0145L55.1282 56.8409C54.8555 58.6136 54.9918 60.1894 55.5373 61.5682C56.0979 62.947 57.0221 64.0303 58.31 64.8182C59.5979 65.6061 61.1888 66 63.0827 66C64.9918 66 66.7191 65.6061 68.2645 64.8182C69.8252 64.0303 71.1055 62.947 72.1055 61.5682C73.1206 60.1894 73.7645 58.6136 74.0373 56.8409L78.9236 27.4545Z" fill="white"/>
</svg>
